<?xml version="1.0" encoding="utf-8"?>
<!-- Generator: Adobe Illustrator 20.0.0, SVG Export Plug-In . SVG Version: 6.00 Build 0)  -->
<svg version="1.1" id="Layer_1" xmlns="http://www.w3.org/2000/svg" xmlns:xlink="http://www.w3.org/1999/xlink" x="0px" y="0px"
	 viewBox="0 0 52 52" style="enable-background:new 0 0 52 52;" xml:space="preserve">
<style type="text/css">
	.st0{fill:#0066E6;}
	.st1{fill:#FFFFFF;}
</style>
<circle class="st0" cx="26" cy="26" r="26"/>
<path class="st1" d="M34.9,17.5c-1.4-1.4-3.7-1.4-5.1,0s-1.4,3.7,0,5.1c1.4,1.4,3.7,1.4,5.1,0S36.3,19,34.9,17.5z M30.8,21.6
	c-0.9-0.9-0.9-2.2,0-3.1s2.2-0.9,3.1,0c0.9,0.9,0.9,2.2,0,3.1S31.6,22.5,30.8,21.6z"/>
<path class="st1" d="M29,33.6c3.7-3.7,7.8-7.8,9.4-9.4c2.9-2.9,4.8-8.6,3.6-13.8c-5.2-1.2-11,0.8-13.9,3.7c-1.5,1.5-5.7,5.7-9.4,9.4
	L7.3,24.7L27.7,45L29,33.6L29,33.6z M13.5,28.7l-3-3l6.7-0.8L13.5,28.7z M22.6,37.9l-8.2-8.2l14.7-14.7c2.3-2.3,7-4.2,11.6-3.5
	c0.7,4.6-1.1,9.3-3.5,11.6L22.6,37.9L22.6,37.9z M27.4,35.2l-0.8,6.7l-3-3C24.5,38.1,25.8,36.7,27.4,35.2z"/>
<path class="st1" d="M16,35.4l1,1l-5.1,5.1l-1-1L16,35.4z"/>
<path class="st1" d="M18.5,37.9l1,1L16.5,42l-1-1L18.5,37.9z"/>
<path class="st1" d="M13.5,32.8l1,1l-3.1,3.1l-1-1C10.4,35.9,13.5,32.8,13.5,32.8z"/>
</svg>
